<svg width="368" height="252" viewBox="0 0 368 252" fill="none" xmlns="http://www.w3.org/2000/svg">
<mask id="mask0_160_234" style="mask-type:alpha" maskUnits="userSpaceOnUse" x="0" y="0" width="368" height="252">
<rect width="368" height="252" rx="22" fill="#FF9933"/>
</mask>
<g mask="url(#mask0_160_234)">
<path d="M105.032 211.79C110.437 207.687 113.206 204.197 112.382 203.197C110.726 201.187 95.9643 209.222 101.627 203.87C107.289 198.518 116.059 180.708 114.066 179.807C112.072 178.906 108.855 183.756 106.751 182.29C104.646 180.824 116.028 163.121 114.5 161.6C112.971 160.08 109.388 163.654 108.285 162.813C107.183 161.972 112.791 145.338 110.772 144.911C108.753 144.484 107.293 147.819 105.567 147.686C103.84 147.554 103.55 132.326 101.235 132.861C98.9209 133.396 99.665 146.179 98.4284 146.253C97.1918 146.328 98.8019 141.76 95.6853 142.884C92.5686 144.008 97.3847 160.136 95.4581 160.095C93.5315 160.053 94.711 154.986 91.8878 155.904C89.0647 156.822 90.8815 177.668 89.0044 177.45C87.1274 177.233 89.6876 168.56 86.0746 168.848C82.9419 169.098 80.9803 187.536 79.1002 192.013C78.5818 190.856 78.026 189.54 77.4489 188.149C77.4176 187.1 77.2011 186.186 76.4585 185.752C73.4997 178.57 70.1429 170.516 67.8603 170.776C63.6732 171.251 68.5266 180.577 66.4331 181.243C64.3396 181.91 61.7703 157.719 58.3441 157.3C54.9187 156.882 57.3927 162.402 55.2038 162.877C53.015 163.353 54.9187 143.879 51.1121 143.291C47.3054 142.703 50.1606 147.556 48.7334 147.747C47.3062 147.937 45.308 133.188 42.5481 133.092C39.7883 132.997 42.8485 150.437 40.9082 150.972C38.9679 151.507 36.5588 148.027 34.3509 148.964C32.143 149.901 42.247 167.632 41.1758 168.838C40.1054 170.042 35.2208 166.763 33.8149 168.838C32.4098 170.912 49.3387 188.578 47.2643 190.719C45.1898 192.861 40.4393 188.042 38.3649 189.515C36.5512 190.801 47.0051 205.003 54.7761 211.792H33.7326V257.706H121.114V211.792H105.032V211.79Z" fill="#E1F7F7"/>
<path d="M51.8413 203.851C51.8413 203.851 57.7392 176.807 62.0147 177.288C66.2902 177.769 62.4813 185.749 65.1695 186.568C67.8576 187.388 70.4063 157.012 74.8854 156.654C79.3644 156.297 76.1906 167.048 78.5174 167.318C80.8442 167.588 78.5921 141.746 82.0915 140.608C85.5916 139.471 84.1294 145.752 86.5172 145.803C88.905 145.854 82.9355 125.863 86.7985 124.469C90.6623 123.076 88.6656 128.738 90.1988 128.646C91.7312 128.554 90.8094 112.709 93.6783 112.045C96.5472 111.382 96.9071 130.259 99.0471 130.423C101.187 130.587 102.998 126.453 105.5 126.982C108.002 127.511 101.05 148.132 102.417 149.174C103.784 150.217 108.226 145.786 110.12 147.671C112.015 149.556 97.9058 171.501 100.514 173.319C103.122 175.135 107.11 169.123 109.582 170.24C112.053 171.357 101.181 193.434 94.1624 200.069C87.1439 206.703 105.442 196.743 107.494 199.235C109.548 201.728 93.615 216.687 69.2826 225.239C44.9508 233.79 51.8413 203.851 51.8413 203.851Z" fill="#B5E2E2"/>
<path d="M56.5815 222.823C56.4176 222.855 56.2422 222.804 56.1202 222.673C55.9327 222.472 55.9434 222.156 56.1446 221.967C75.2685 204.12 84.4522 177.866 88.7895 158.985C93.4957 138.495 93.6688 122.022 93.6695 121.858C93.6718 121.583 93.8975 121.359 94.1727 121.362C94.4487 121.365 94.6706 121.589 94.669 121.865C94.6675 122.03 94.496 138.595 89.7684 159.187C85.4006 178.211 76.1406 204.673 56.8262 222.699C56.7553 222.764 56.6699 222.805 56.5815 222.823Z" fill="white"/>
<path d="M89.1111 207.761C89.1111 207.761 76.3593 178.218 71.5875 179.719C66.8165 181.22 72.94 189.477 70.0551 191.011C67.1702 192.545 57.497 158.453 52.3066 159.043C47.1163 159.633 53.1323 171.193 50.5371 172.019C47.9419 172.844 44.7567 142.858 40.5101 142.339C36.2636 141.82 39.3307 148.662 36.6174 149.251C33.904 149.842 36.2636 125.701 31.5452 124.972C26.8267 124.243 30.3658 130.26 28.5962 130.495C26.8267 130.731 24.3497 112.447 20.9289 112.329C17.508 112.211 21.3017 133.83 18.8956 134.493C16.4902 135.156 13.5039 130.844 10.767 132.005C8.02997 133.166 20.5545 155.146 19.2272 156.639C17.8999 158.133 11.845 154.068 10.1029 156.639C8.36085 159.211 29.3464 181.109 26.7749 183.763C24.2033 186.417 18.3146 180.446 15.7431 182.271C13.1715 184.096 30.4938 206.864 39.9803 212.871C49.466 218.878 26.3701 211.588 24.583 214.89C22.796 218.19 44.3061 231.711 73.9738 236.049C103.641 240.387 89.1111 207.761 89.1111 207.761Z" fill="#C9EFF1"/>
<path d="M87.929 230.465C88.1227 230.465 88.3118 230.368 88.4223 230.192C88.5916 229.92 88.5092 229.562 88.2371 229.392C62.4423 213.287 46.1157 185.377 36.9624 164.8C27.0292 142.469 23.1631 123.712 23.1258 123.525C23.0617 123.211 22.7545 123.007 22.4419 123.072C22.127 123.136 21.9242 123.442 21.9875 123.756C22.0264 123.944 25.9108 142.805 35.8912 165.247C45.1116 185.981 61.5709 214.112 87.6233 230.377C87.7171 230.436 87.8238 230.465 87.929 230.465Z" fill="white"/>
<path d="M107.837 258.821H20.4557V223.53C20.4557 217.662 25.2123 212.906 31.0789 212.906H97.214C103.081 212.906 107.837 217.662 107.837 223.53V258.821Z" fill="#507896"/>
<path d="M20.4557 229.507H107.837" stroke="#A9CBE0" stroke-miterlimit="10"/>
<path d="M20.4557 244.749H107.837" stroke="#A9CBE0" stroke-miterlimit="10"/>
<path d="M367.22 100.429V258.824H155.367C155.481 257.741 155.596 256.658 155.71 255.561C156.411 249.126 157.212 242.455 158.142 235.647C164.813 186.503 177.728 129.957 202.727 101.512C202.765 101.466 202.803 101.428 202.841 101.382C208.711 94.7188 215.253 89.6108 222.541 86.5155C227.733 84.2969 233.314 83.1076 239.291 83.1152C239.291 83.1152 248.92 81.8725 263.085 81.0872C269.924 80.706 277.815 80.4316 286.186 80.4545C287.329 80.4545 288.48 80.4697 289.639 80.4849C292.689 80.5154 295.784 80.5993 298.91 80.7365C300.793 80.8128 302.684 80.9119 304.582 81.0339C326.265 82.4062 348.382 86.4545 362.265 96.0759C364.018 97.2881 365.665 98.7595 367.22 100.429Z" fill="#507896"/>
<path d="M367.217 100.432C365.661 98.7579 364.015 97.2903 362.264 96.0765C348.385 86.4529 326.265 82.4084 304.58 81.0376C307.984 84.0193 313.719 87.7459 322.547 92.366C376.352 120.555 342.419 189.636 342.316 189.845C326.502 196.346 305.029 199.574 276.936 192.961C203.533 175.684 195.74 167.311 195.74 167.311L215.786 258.82H367.218V100.432H367.217Z" fill="#3A5A6D"/>
<path d="M367.22 219.05C364.933 203.222 352.132 178.948 349.304 172.079C345.919 163.853 345.492 141.591 342.336 134.531C340.208 129.774 325.746 124.338 315.766 120.564C315.766 120.564 311.474 106.422 297.911 104.859C297.187 101.748 296.668 101.535 296.668 101.535C296.668 101.535 298.994 97.1128 297.21 93.4609C296.539 92.0734 295.387 90.9679 294.221 90.1293C294.9 88.5587 295.502 86.8738 296.02 85.067C296.501 84.5943 296.623 84.0835 296.623 84.0835C296.623 84.0835 297.21 85.5702 298.475 85.067C298.879 84.9069 300.683 84.4068 300.622 82.0357C300.622 81.9214 298.926 82.1577 298.926 82.0357C295.755 82.0281 292.635 80.4095 289.639 80.4858C284.706 80.5849 280.048 80.7831 275.802 81.0194C261.636 81.8047 252.007 83.0474 252.007 83.0474C246.03 83.0398 240.45 84.2291 235.258 86.4477C235.669 87.3397 236.104 88.224 236.569 89.0932C237.202 90.2673 237.865 91.3803 238.551 92.4477C237.293 93.82 235.128 96.3969 235.067 97.975C235.014 99.8886 235.524 100.338 235.669 100.422C232.521 100.598 225.827 100.956 220.063 101.177C218.455 101.238 216.922 101.291 215.557 101.314C213.674 101.36 212.111 101.368 211.136 101.322C208.071 101.169 205.006 101.246 202.726 101.513C177.728 129.957 164.813 186.504 158.142 235.648C163.722 236.669 170.104 237.081 170.104 237.081C170.104 237.081 164.66 247.373 160.475 255.493H262.81C263.337 255.546 263.87 255.592 264.419 255.63C267.865 255.866 277.426 258.184 286.002 258.756C286.414 258.786 286.826 258.809 287.237 258.824C288.839 258.901 290.394 258.916 291.858 258.824C292.163 258.809 292.467 258.786 292.765 258.756C293.07 258.725 293.367 258.695 293.664 258.657C303.21 257.444 341.322 260.593 353.169 256.72C365.024 252.855 364.056 241 367.197 227.216C367.205 227.178 367.212 227.139 367.22 227.101C367.716 224.859 367.662 222.114 367.22 219.05Z" fill="#3A5A6D"/>
<path d="M367.218 124.499V100.425C365.662 98.7518 364.015 97.2903 362.264 96.0766C327.185 71.7441 239.294 83.1167 239.294 83.1167L240.217 88.6265C240.217 88.6265 259.361 87.5973 298.106 90.0712C329.417 92.0672 357.987 94.8133 367.218 124.499Z" fill="#6793BA"/>
<path d="M367.218 175.984C360.627 207.834 345.025 240.478 335.072 259.158H367.218V175.984Z" fill="#6793BA"/>
<path d="M367.218 108.518C361.517 100.822 353.249 95.5043 342 92.29C313.551 84.657 282.338 82.1007 246.581 84.4664L246.683 85.9881C282.273 83.6308 313.322 86.1749 341.594 93.7592C353.241 97.087 361.581 102.721 367.081 110.97C367.128 111.045 367.171 111.121 367.218 111.196V108.518H367.218Z" fill="#3A5A6D"/>
<path d="M146.942 240.404C146.942 240.404 141.499 250.699 137.311 258.82H304.818L303.98 249.789L294.19 144.556L279.56 130.406L263.611 114.983L226.025 116.294L214.307 103.646C214.307 103.646 204.739 104.203 196.902 104.5C193.074 104.645 189.651 104.729 187.974 104.645C182.858 104.393 177.743 104.767 176.249 105.644C174.747 106.513 167.511 108.884 166.139 110.881C164.767 112.879 114.739 188.943 113.42 195.309C112.421 200.127 116.957 216.755 119.793 225.995C120.708 228.968 121.448 231.179 121.768 231.98C123.079 235.273 127.036 237.248 132.968 238.567C138.891 239.886 146.942 240.404 146.942 240.404Z" fill="#FFC926"/>
<path d="M146.943 240.404C146.943 240.404 141.499 250.699 137.311 258.821H304.819L303.98 249.789L286.216 197.756L272.12 213.492H184.132C184.132 213.492 168.595 237.538 148.063 236.585C134.241 235.937 124.612 229.883 119.794 225.995C120.709 228.968 121.448 231.179 121.769 231.98C123.08 235.273 127.037 237.248 132.968 238.567C138.892 239.886 146.943 240.404 146.943 240.404Z" fill="#F29820"/>
<path d="M161.793 193.893C161.793 193.893 162.55 185.06 164.764 174.118C167.937 158.437 175.314 135.16 183.205 126.406C183.205 126.406 178.766 130.598 177.163 133.558C177.163 133.558 179.26 122.583 181.725 117.651C181.725 117.651 161.924 155.214 157.558 196.163L161.793 193.893Z" fill="#F29820"/>
<path d="M344.036 230.539C340.895 244.323 341.863 256.178 330.008 260.043C318.161 263.916 280.049 260.768 270.504 261.98C260.951 263.192 245.802 259.258 241.258 258.953C236.707 258.648 233.223 257.893 228.526 255.774C223.83 253.647 220.041 252.587 220.193 247.136L225.644 247.891C225.644 247.891 232.857 242.485 238.88 234.48C241.235 231.354 243.408 227.84 244.895 224.096C244.895 224.096 243.766 222.678 242.913 222.412C242.913 222.412 243.545 221.847 244.536 221.489C245.459 221.154 246.694 220.994 248.005 221.626C250.727 222.938 274.323 229.349 279.042 232.102C283.761 234.854 290.836 234.656 290.836 234.656C290.836 234.656 290.73 233.748 290.547 232.117C289.434 221.886 285.66 183.24 290.15 164.714C290.15 164.714 262.445 158.828 256.902 145.319C251.367 131.817 261.927 110.531 272.577 109.578C272.577 109.578 280.559 117.438 283.159 119.847C285.759 122.264 316.018 130.803 319.175 137.855C322.331 144.914 322.758 167.176 326.143 175.403C329.528 183.621 347.185 216.755 344.036 230.539Z" fill="#FFC926"/>
<path d="M289.395 123.031C279.866 129.572 264.954 139.582 244.895 139.425C204.582 139.11 197.718 115.212 196.902 104.5C204.739 104.203 214.307 103.646 214.307 103.646L226.025 116.294L263.611 114.983L289.395 123.031Z" fill="#F29820"/>
<path d="M160.205 193.047C160.205 193.047 172.04 194.654 173.127 195.071C174.212 195.489 170.579 198.746 170.579 198.746L164.764 200.167L160.391 195.948L160.205 193.047Z" fill="#FF8D78"/>
<path d="M166.98 196.671L149.787 148.33C149.422 147.306 149.963 146.182 150.99 145.827C152.005 145.475 153.113 146.008 153.473 147.02L169.828 193.047L171.106 197.752L168.311 200.579L166.98 196.671Z" fill="#507896"/>
<path d="M182.439 207.797L181.76 208.018C181.753 208.018 181.753 208.018 181.745 208.018L175.92 209.848L166.734 212.745C166.726 212.745 166.726 212.745 166.726 212.745L162.723 214.01L158.126 215.459L147.659 218.76C147.659 218.76 146.37 214.277 147.659 212.554C147.735 212.455 147.811 212.356 147.88 212.257C149.061 210.648 149.9 209.131 150.06 207.568C150.228 205.906 149.892 204.519 150.723 203.131C151.554 201.751 153.72 199.921 154.383 198.534C155.046 197.146 155.161 195.538 156.38 194.325C157.6 193.106 160.208 193.045 160.208 193.045C160.208 193.045 166.551 196.422 170.439 198.542C171.819 199.289 172.894 199.883 173.26 200.104C173.931 200.508 176.004 202.239 178.017 203.97C180.274 205.891 182.439 207.797 182.439 207.797Z" fill="#FFD1C9"/>
<path d="M178.017 203.97C176.759 204.313 175.021 204.397 172.94 203.482C168.586 201.561 168.541 199.876 168.541 199.807L170.439 198.542C171.819 199.289 172.894 199.883 173.26 200.104C173.931 200.508 176.004 202.239 178.017 203.97Z" fill="#FFA796"/>
<path d="M180.266 205.906L175.951 202.201C175.951 202.201 172.894 202.3 171.186 201.751C169.478 201.194 167.374 199.441 168.075 196.879C168.777 194.325 171.773 188.432 175.623 189.804C178.337 190.773 179.526 198.366 179.999 202.773C180.197 204.618 180.266 205.906 180.266 205.906Z" fill="#FFD1C9"/>
<path d="M158.126 215.459L147.659 218.76C147.659 218.76 146.37 214.277 147.659 212.554C147.735 212.455 147.811 212.356 147.88 212.257C149.74 213.522 152.896 214.902 158.126 215.459Z" fill="#FFA796"/>
<path d="M166.726 212.745L162.724 214.01L155.511 210.961C155.87 211.067 160.482 212.447 166.726 212.745Z" fill="#FFA796"/>
<path d="M181.745 208.018L175.92 209.848L169.158 206.798L160.39 203.482C160.39 203.482 165.605 204.237 169.478 205.594C172.139 206.531 178.223 207.5 181.745 208.018Z" fill="#FFA796"/>
<path d="M180.266 205.906L175.951 202.201C175.951 202.201 177.69 201.5 178.261 199.594C178.261 199.594 178.528 201.385 180 202.773C180.198 204.618 180.266 205.906 180.266 205.906Z" fill="#FF8D78"/>
<path d="M170.198 195.447C170.198 195.447 172.023 194.523 175.951 196.973C175.951 196.973 171.725 194.964 170.198 195.447Z" fill="#FFA796"/>
<path d="M207.941 212.615C199.662 238.971 195.743 253.731 195.743 253.731L160.208 250.483C160.208 250.483 169.311 234.961 178.947 214.635L207.941 212.615Z" fill="#ED430D"/>
<path d="M289.856 225.255C289.856 225.255 284.894 174.704 292.599 157.218C292.599 157.218 289.832 159.923 288.951 163.779C288.951 163.779 286.866 151.772 290.441 145.605C290.441 145.605 283.431 152.433 288.284 167.303C288.284 167.303 283.981 199.213 287.713 225.255H289.856Z" fill="#F29820"/>
<path d="M230.767 140.607C228.693 148.528 225.4 159.636 220.185 175.082C215.367 189.354 211.296 201.934 207.941 212.615C199.662 238.971 195.743 253.731 195.743 253.731L160.208 250.483C160.208 250.483 169.311 234.961 178.947 214.635C180.64 211.06 182.355 207.332 184.04 203.512C192.152 185.123 207.354 149.969 215.214 131.786C218.249 124.749 220.185 120.259 220.185 120.259L234.305 122.256C234.305 122.256 234.61 125.984 230.767 140.607Z" fill="#FF6300"/>
<path d="M265.668 120.992C265.668 120.992 286.367 121.508 292.599 123.89C292.599 123.89 288.312 109.746 274.749 108.183C274.749 108.183 261.822 116.098 265.668 120.992Z" fill="#ED430D"/>
<path d="M230.767 140.607C224.012 138.388 218.927 135.049 215.214 131.786C218.248 124.749 220.185 120.259 220.185 120.259L234.304 122.256C234.304 122.256 234.609 125.984 230.767 140.607Z" fill="#ED430D"/>
<path d="M274.392 110.645C272.966 114.373 267.98 120.03 261.576 123.781C254.607 127.86 246.214 128.394 236.928 127.09C227.642 125.779 221.687 122.173 215.771 116.401C208.772 109.578 212.539 103.768 212.539 103.768C212.539 103.768 211.837 103.524 211.906 101.298C211.982 99.0721 216.282 94.8408 216.282 94.8408L261.675 91.7989L267.217 91.4253C267.217 91.4253 272.264 93.133 274.048 96.7849C275.832 100.437 273.507 104.859 273.507 104.859C273.507 104.859 274.026 105.072 274.75 108.183C274.902 108.823 274.773 109.669 274.392 110.645Z" fill="#FF6300"/>
<path d="M212.538 103.768C212.538 103.768 217.893 114.715 238.092 117.947C258.291 121.178 273.507 104.859 273.507 104.859" stroke="#ED430D" stroke-miterlimit="10"/>
<path d="M127.971 229.166L188.265 239.345L236.032 216.975L210.474 202.054L127.971 229.166Z" fill="#366AA1"/>
<path d="M322.868 243.402L236.032 216.975L210.474 202.054L293.556 228.185L322.868 243.402Z" fill="#254D72"/>
<path d="M129.452 228.679L128.476 224.888L209.552 198.311L210.474 202.053L129.452 228.679Z" fill="#FFF4EC"/>
<path d="M313.325 236.581L294.51 226.816L209.552 198.311" fill="#FFF4EC"/>
<path d="M210.474 202.053L209.552 198.311L294.51 226.816L321.97 241.067L322.14 243.024L293.556 228.185L210.474 202.053Z" fill="#FFF4EC"/>
<path d="M244.895 224.097C244.895 224.097 243.766 222.679 242.912 222.412C242.912 222.412 243.545 221.848 244.536 221.489C245.855 222.076 244.895 224.097 244.895 224.097Z" fill="#F4866C"/>
<path d="M244.895 224.097C242.013 233.253 225.645 247.891 225.645 247.891C225.645 247.891 210.9 246.015 205.312 245.794C199.723 245.573 192.786 243.72 192.786 243.72C192.786 243.72 175.174 236.752 172.811 235.235C170.447 233.71 173.512 232.574 173.512 232.574L168.724 231.034C168.724 231.034 163.769 228.191 168.724 226.407C173.672 224.615 190.071 231.034 190.071 231.034C194.615 230.302 208.986 229.731 208.986 229.731C208.986 229.731 202.491 228.922 199.403 228.191C196.323 227.459 179.192 221.047 178.216 220.719C177.248 220.399 175.624 217.799 180.572 216.907C185.528 216.015 204.923 220.719 204.923 220.719C208.209 220.788 220.468 222.816 226.407 223.7L226.437 223.708C228.412 224.005 229.678 224.173 229.678 224.097C229.678 223.807 229.022 222.587 229.678 216.595C229.708 216.297 229.754 216.008 229.807 215.733C229.807 215.718 229.815 215.71 229.815 215.703C230.859 210.549 235.502 210.03 236.417 210.656C237.385 211.311 237.202 211.738 237.202 211.738C236.501 213.98 237.812 218.607 239.124 219.606C240.328 220.529 244.194 223.548 244.811 224.036C244.864 224.074 244.895 224.097 244.895 224.097Z" fill="#FFD1C9"/>
<path d="M244.895 224.097C243.34 229.029 237.881 235.548 233.177 240.511H233.17C229.137 244.773 225.645 247.891 225.645 247.891C225.645 247.891 210.9 246.015 205.312 245.794C199.724 245.573 192.786 243.72 192.786 243.72C192.786 243.72 191.94 243.385 190.59 242.844C187.579 241.639 182.067 239.413 177.919 237.629C175.464 236.577 173.497 235.67 172.811 235.235C170.448 233.71 173.513 232.574 173.513 232.574C173.513 232.574 187.586 237.881 191.429 240.122C195.271 242.363 200.745 239.009 206.623 239.344C209.131 239.489 212.494 239.649 215.955 239.771H215.978C220.628 239.939 225.47 240.053 228.679 240C233.17 239.924 241.137 230.287 244.811 224.036C244.865 224.074 244.895 224.097 244.895 224.097Z" fill="#FFA796"/>
<path d="M208.91 229.723L208.986 229.731L229.983 234.579C229.983 234.579 201.675 230.935 193.83 230.615C193.815 230.615 193.807 230.615 193.792 230.615L208.91 229.723Z" fill="#FFA796"/>
<path d="M215.955 239.771L198.534 241.571L190.59 242.844C187.579 241.639 182.067 239.413 177.919 237.629L191.429 240.122C195.271 242.363 200.745 239.009 206.623 239.344C209.132 239.489 212.494 239.649 215.955 239.771Z" fill="#FF8D78"/>
<path d="M233.17 240.511C229.137 244.773 225.645 247.891 225.645 247.891C225.645 247.891 210.9 246.015 205.312 245.794C199.724 245.573 192.786 243.721 192.786 243.721C195.668 243.865 199.449 242.775 200.585 242.592C201.721 242.402 214.4 242.226 220.186 242.592C225.98 242.951 226.537 242.493 233.17 240.511Z" fill="#FF8D78"/>
<path d="M191.555 239.734C191.555 239.734 190.707 238.951 191.033 237.842C191.033 237.842 189.271 238.364 191.555 239.734Z" fill="#FFA796"/>
<path d="M229.678 224.097C229.678 223.807 229.022 222.587 229.678 216.595C229.708 216.297 229.754 216.008 229.807 215.733C229.54 218.302 229.556 224.272 234.976 226.064L226.437 223.708C228.412 224.005 229.678 224.173 229.678 224.097Z" fill="#FFA796"/>
<path d="M202.85 69.4152C202.85 69.4152 204.609 70.1791 206.561 70.048C208.514 69.9169 209.406 65.5323 209.406 65.5323L203.277 67.7974L202.85 69.4152Z" fill="#ED430D"/>
<path d="M274.805 71.7498C274.805 71.7498 276.569 87.8919 275.309 88.3966C274.048 88.9013 273.46 87.4116 273.46 87.4116C273.46 87.4116 273.124 88.9851 271.022 89.1529C268.92 89.3214 268.667 72.5624 268.667 72.5624L274.805 71.7498Z" fill="#4E3C31"/>
<path d="M273.881 84.1369C271.739 95.1306 266.791 102.16 261.256 106.567C261.233 106.582 261.21 106.597 261.188 106.62C253.96 112.33 245.741 113.596 241.442 113.375C233.833 112.971 221.116 106.841 213.408 92.4165C209.551 85.189 207.569 76.8866 206.562 70.0479C205.396 62.081 205.533 56.1038 205.533 56.1038C206.143 18.4874 256.567 15.5369 268.415 37.1812C270.42 40.8483 271.907 44.6222 272.989 48.3579C278.28 66.6706 273.881 84.1369 273.881 84.1369Z" fill="#FFD1C9"/>
<path d="M273.881 84.1369C271.739 95.1306 266.791 102.16 261.256 106.566C261.286 106.536 261.317 106.513 261.347 106.483C274.682 94.7875 268.666 70.0937 268.666 70.0937C256.216 71.0162 229.45 65.4904 228.771 65.2998C234.245 68.9592 250.362 72.926 250.362 72.926C242.746 72.926 223.235 66.6416 223.235 66.6416L206.561 70.0472C205.395 62.0802 205.532 56.103 205.532 56.103L221.595 46.5045L272.988 48.3571C278.28 66.6705 273.881 84.1369 273.881 84.1369Z" fill="#FFA796"/>
<path d="M275.591 58.398C275.591 58.398 273.853 70.5185 274.028 76.5787C274.028 76.5787 270.696 72.4771 269.799 60.9421L268.839 51.8856L275.591 58.398Z" fill="#4E3C31"/>
<path d="M206.621 55.0974C216.804 63.1055 232.631 71.5559 254.237 71.7961C254.237 71.7961 226.921 68.6214 212.033 52.6905C212.033 52.6905 230.819 69.6118 274.812 69.2367C274.812 69.2367 272.505 52.2521 259.307 43.9939L245.483 25.6599C245.483 25.6599 197.33 47.7906 206.621 55.0974Z" fill="#4E3C31"/>
<path d="M276.747 54.0225L204.77 63.4533C204.77 63.4533 200.05 57.095 207.392 36.7391C214.597 16.7645 230.699 7.85211 252.16 10.4366C252.564 10.4824 252.968 10.5357 253.372 10.5891C270.625 12.983 275.253 39.682 276.396 49.9895C276.671 52.4901 276.747 54.0225 276.747 54.0225Z" fill="#FF6300"/>
<path d="M205.532 56.1037C205.532 56.1037 216.681 43.5327 244.28 39.7138C271.878 35.895 271.878 35.895 271.878 35.895L272.215 45.8968L205.532 56.1037Z" fill="#ED430D"/>
<path d="M276.397 49.9895L274.079 50.6223L265.937 48.1903C265.937 48.1903 264.862 21.2702 252.161 10.4366C252.565 10.4824 252.969 10.5358 253.373 10.5891C270.626 12.983 275.253 39.682 276.397 49.9895Z" fill="#ED430D"/>
<path d="M281.932 55.0823C282.016 58.2462 278.371 58.2158 278.371 58.2158C278.371 58.2158 272.486 58.5741 264.168 59.2831C252.137 60.3047 234.999 62.0658 223.159 64.5665C203.138 68.7978 203.71 69.4382 203.71 69.4382C201.011 69.9261 201.896 65.8397 201.202 64.1472C200.508 62.4547 200.051 62.7901 199.471 61.2424C198.45 58.4902 200.051 57.095 200.051 57.095C232.773 37.7913 279.972 42.3504 280.91 44.7519C281.047 45.1026 281.131 45.4381 281.169 45.7507C281.436 47.5728 280.331 48.8002 280.445 50.1649C280.575 51.7659 281.855 51.9108 281.932 55.0823Z" fill="#FF6300"/>
<path d="M273.48 60.6515C273.48 60.6515 278.29 54.6385 282.299 58.0456C286.307 61.4527 286.464 76.5107 274.922 77.6459C269.619 78.1682 273.48 60.6515 273.48 60.6515Z" fill="#FFA796"/>
<path d="M281.931 55.0822C282.015 58.2462 278.371 58.2157 278.371 58.2157C278.371 58.2157 272.485 58.574 264.168 59.283C263.359 57.3542 261.758 55.0822 258.686 55.0822C253.364 55.0822 216.442 55.532 206.904 61.3186C207.339 61.0289 221.466 51.7277 265.22 50.6222C265.22 50.6222 268.185 47.4126 266.668 43.9818L281.169 45.7506C281.436 47.5727 280.33 48.8001 280.445 50.1648C280.574 51.7658 281.855 51.9107 281.931 55.0822Z" fill="#ED430D"/>
<path d="M273.885 67.109C273.885 67.109 274.156 59.5972 279.211 59.4157C284.267 59.2343 283.999 66.6447 282.101 70.2768C279.664 74.9411 275.592 75.1157 275.592 75.1157C275.592 75.1157 282.372 73.1022 282.484 65.6125C282.588 58.6846 276.079 58.3019 273.885 67.109Z" fill="#FF8D78"/>
<path d="M278.133 62.4019C275.869 61.7668 274.748 63.4532 274.748 63.4532V64.5412C274.748 64.5412 277.087 62.8479 278.268 64.5374C278.943 65.5041 278.634 66.8436 277.688 67.5488C276.766 68.2372 275.796 69.4525 276.227 71.3928C276.227 71.3928 276.104 68.9333 278.917 68.315C278.917 68.315 280.398 63.037 278.133 62.4019Z" fill="#FF8D78"/>
<path d="M235.838 89.8692C235.435 89.5154 234.008 89.7548 233.742 90.2214C233.46 90.7162 232.956 98.4209 234.374 100.364C235.001 101.225 235.909 101.577 236.699 101.41C237.5 101.309 238.243 100.68 238.555 99.6613C239.26 97.362 236.266 90.2443 235.838 89.8692Z" fill="#FE6900"/>
<path d="M244.396 74.4528L244.564 77.0876C244.564 77.0876 249.183 75.6749 251.751 75.5209C256.322 75.2472 258.122 75.7611 258.122 75.7611C258.122 75.7611 256.48 71.5122 244.396 74.4528Z" fill="#813626"/>
<path d="M224.698 77.1623L225.135 79.7658C225.135 79.7658 220.316 79.4426 217.78 79.8787C213.267 80.654 211.632 81.5635 211.632 81.5635C211.632 81.5635 212.262 77.0525 224.698 77.1623Z" fill="#813626"/>
<path d="M251.93 84.9907C252.168 86.408 251.818 87.6484 251.147 87.7612C250.477 87.874 249.741 86.8158 249.503 85.3986C249.265 83.9813 249.615 82.7409 250.285 82.628C250.956 82.5159 251.692 83.5734 251.93 84.9907Z" fill="#634023"/>
<path d="M223.255 88.9283C223.492 90.3456 223.143 91.586 222.472 91.6989C221.801 91.8117 221.065 90.7535 220.827 89.3362C220.589 87.9189 220.939 86.6785 221.609 86.5665C222.28 86.4529 223.017 87.5111 223.255 88.9283Z" fill="#634023"/>
<path d="M236.831 107.811L241.765 107.29" stroke="#FE6900" stroke-width="1.08" stroke-miterlimit="10"/>
</g>
</svg>
